<svg xmlns="http://www.w3.org/2000/svg" xmlns:xlink="http://www.w3.org/1999/xlink" viewBox="0 0 285.45 54.7"><defs><style>.cls-1{fill:#002e6d;}.cls-2{fill:url(#linear-gradient);}</style><linearGradient id="linear-gradient" y1="29.03" x2="64.66" y2="29.03" gradientUnits="userSpaceOnUse"><stop offset="0" stop-color="#00306b"/><stop offset="0.06" stop-color="#003a75"/><stop offset="0.36" stop-color="#0064a1"/><stop offset="0.62" stop-color="#0083c1"/><stop offset="0.85" stop-color="#0095d5"/><stop offset="1" stop-color="#009cdc"/></linearGradient></defs><g id="Layer_2" data-name="Layer 2"><g id="logo"><polygon class="cls-1" points="80.83 14.29 66.54 0 14.29 0 8.65 5.63 64.17 5.71 72.75 14.29 52.54 34.49 56.58 38.54 80.83 14.29"/><polygon class="cls-1" points="16.45 22.86 8.57 22.86 40.41 54.7 44.46 50.59 16.45 22.86"/><polygon class="cls-2" points="52.54 42.58 48.5 46.62 24.74 22.86 48.01 22.86 53.72 17.15 2.86 17.15 0 14.29 2.86 11.43 61.81 11.43 64.66 14.29 50.37 28.58 38.54 28.58 52.54 42.58"/><path class="cls-1" d="M118,42.31l-6.58-11.44h-5.5V42.31h-5.64V11.7h11.69c3.56,0,6.26.7,8,2.07s2.72,3.72,2.72,6.86V22a9.31,9.31,0,0,1-1.55,5.64,7.48,7.48,0,0,1-3.68,2.55l-.21.07,7.31,12.1ZM105.87,25.69h6a16.14,16.14,0,0,0,2.64-.18,3,3,0,0,0,1.46-.59,2.45,2.45,0,0,0,.74-1.21,8.64,8.64,0,0,0,.26-2.34v-.21a8.69,8.69,0,0,0-.26-2.34,2.41,2.41,0,0,0-.73-1.18,3.11,3.11,0,0,0-1.47-.58,16.27,16.27,0,0,0-2.64-.17h-6Z"/><polygon class="cls-1" points="135.78 42.31 135.78 11.7 157.33 11.7 156.28 16.89 141.42 16.89 141.42 24 156.3 24 155.25 29.19 141.42 29.19 141.42 37.13 157.33 37.13 156.28 42.31 135.78 42.31"/><path class="cls-1" d="M174.75,42.4c-1.61,0-3.73,0-6.29-.09l-.78,0,1-5.18.56,0,2.9.06,2.31,0h4a23.39,23.39,0,0,0,3.22-.18,4.6,4.6,0,0,0,1.78-.56,1.67,1.67,0,0,0,.73-.93,5.8,5.8,0,0,0,.24-1.83,9.8,9.8,0,0,0-.13-1.68,2.08,2.08,0,0,0-.44-1,2.34,2.34,0,0,0-1-.65,10.19,10.19,0,0,0-2.06-.54L175.28,29a13.25,13.25,0,0,1-3.57-1,6.49,6.49,0,0,1-2.32-1.74,5.91,5.91,0,0,1-1.19-2.45,13.82,13.82,0,0,1-.3-3V20a9.43,9.43,0,0,1,.6-3.43,6.47,6.47,0,0,1,2-2.7,9.33,9.33,0,0,1,3.54-1.67,21.38,21.38,0,0,1,5.21-.55h4.07l2.25,0,2.95.06.78,0-1,5.18-.56,0c-2-.05-3.6-.08-5-.08h-3.91A18.92,18.92,0,0,0,176,17a3.84,3.84,0,0,0-1.57.55,1.68,1.68,0,0,0-.68.9,5.77,5.77,0,0,0-.21,1.71,7.67,7.67,0,0,0,.13,1.55,2,2,0,0,0,.41.9,2.43,2.43,0,0,0,.95.64,8.61,8.61,0,0,0,1.9.49l5.72,1a14.25,14.25,0,0,1,3.42,1,6.62,6.62,0,0,1,2.35,1.71,6.47,6.47,0,0,1,1.28,2.52,12.69,12.69,0,0,1,.38,3.26v.7a10.93,10.93,0,0,1-.58,3.68,6,6,0,0,1-2,2.76,9.44,9.44,0,0,1-3.63,1.6,23.94,23.94,0,0,1-5.38.52Z"/><path class="cls-1" d="M212.89,43.05a17.47,17.47,0,0,1-6-.86,8.18,8.18,0,0,1-3.72-2.64,9.92,9.92,0,0,1-1.82-4.23,29.1,29.1,0,0,1-.46-5.47V11.7h5.64V29.93a26.49,26.49,0,0,0,.27,4.17,5.23,5.23,0,0,0,.94,2.37,3.48,3.48,0,0,0,1.81,1.16,15.44,15.44,0,0,0,6.63,0,3.43,3.43,0,0,0,1.8-1.16A5.21,5.21,0,0,0,219,34.1a25.19,25.19,0,0,0,.28-4.17V11.7h5.64V29.85a28.89,28.89,0,0,1-.47,5.47,10,10,0,0,1-1.81,4.23,8.27,8.27,0,0,1-3.75,2.64A17.54,17.54,0,0,1,212.89,43.05Z"/><polygon class="cls-1" points="236.89 42.31 236.89 11.7 242.53 11.7 242.53 37.13 257.53 37.13 256.48 42.31 236.89 42.31"/><polygon class="cls-1" points="269.13 42.31 269.13 16.89 258.7 16.89 259.75 11.7 285.45 11.7 284.4 16.89 274.77 16.89 274.77 42.31 269.13 42.31"/></g></g></svg>