<?xml version="1.0" standalone="no"?>
<!DOCTYPE svg PUBLIC "-//W3C//DTD SVG 1.1//EN" "http://www.w3.org/Graphics/SVG/1.1/DTD/svg11.dtd" >
<svg xmlns="http://www.w3.org/2000/svg">
<metadata>Generated by IcoMoon</metadata>
<defs>
<font id="icomoon" horiz-adv-x="1024">
<font-face units-per-em="1024" ascent="960" descent="-64" />
<missing-glyph horiz-adv-x="1024" />
<glyph unicode="&#x20;" horiz-adv-x="512" d="" />
<glyph unicode="&#xe900;" glyph-name="coffee" horiz-adv-x="1609" d="M1482.18 893.433h-172.083v41.781c0 13.689-11.097 24.786-24.786 24.786v0h-1153.239c-0.317 0.015-0.689 0.023-1.062 0.023-13.689 0-24.786-11.097-24.786-24.786 0-0.008 0-0.016 0-0.024v0.001c0-247.856 6.373-584.586 184.83-784.288 29.423-32.858 71.968-53.445 119.321-53.466h595.213c47.357 0.021 89.902 20.609 119.191 53.314l0.134 0.152c41.489 47.434 75.846 102.475 100.55 162.507l1.425 3.911h6.728c207.4 0.201 375.477 168.278 375.679 375.659v73.315c0 70.204-56.911 127.115-127.115 127.115v0zM1494.573 693.024c-0.114-133.12-99.752-242.934-228.517-259.056l-1.281-0.131c25.17 102.846 40.665 221.496 42.823 343.401l0.021 1.473h174.562c6.844 0 12.393-5.548 12.393-12.393v0zM1359.668 50.368h-1302.307c-1.348 0.113-2.918 0.177-4.503 0.177-31.68 0-57.361-25.681-57.361-57.361s25.681-57.361 57.361-57.361c1.585 0 3.155 0.064 4.707 0.19l-0.204-0.013h1302.307c1.348-0.113 2.918-0.177 4.503-0.177 31.68 0 57.361 25.681 57.361 57.361s-25.681 57.361-57.361 57.361c-1.585 0-3.155-0.064-4.707-0.19l0.204 0.013z" />
<glyph unicode="&#xe901;" horiz-adv-x="3316" d="M765.343 305.78c339.248 132.759 845.782 166.759 1283.562 105.544l-49.982 333.82c-9.008 51.461-53.354 90.074-106.72 90.074-5.651 0-11.2-0.433-16.617-1.267l0.605 0.077-1059.056-143.238c-52.443-6.218-92.727-50.418-92.727-104.026 0-4.842 0.329-9.606 0.965-14.273l-0.061 0.543z" />
<glyph unicode="&#xe902;" horiz-adv-x="3316" d="M2271.677 370.915l30.155 260.241c0.322 3.102 0.506 6.702 0.506 10.346 0 55.070-41.967 100.338-95.664 105.567l-0.434 0.034-1062.976 121.149c-4.213 0.589-9.079 0.925-14.025 0.925-53.9 0-98.477-39.919-105.778-91.806l-0.065-0.565-47.344-405.665c388.476 93.708 895.689 92.351 1295.624-0.226z" />
<glyph unicode="&#xe903;" horiz-adv-x="3316" d="M2528.148 292.436l74.936 282.405c1.981 7.594 3.118 16.312 3.118 25.296 0 49.453-34.455 90.859-80.669 101.521l-0.702 0.136-1036.816 254.963c-8.182 2.205-17.576 3.472-27.266 3.472-49.422 0-91.146-32.956-104.395-78.091l-0.194-0.769-123.109-464.166c437.328 55.637 949.441 12.665 1295.097-124.768z" />
<glyph unicode="&#xe904;" horiz-adv-x="3316" d="M1605.169 823.095l-19.149 4.825c0.452 1.583 0.829 3.091 1.206 4.599 0.055 0.21 0.087 0.452 0.087 0.701 0 1.318-0.89 2.428-2.102 2.762l-128.18 32.12c-0.21 0.055-0.452 0.087-0.701 0.087-1.318 0-2.428-0.89-2.762-2.102l-0.005-0.020c-6.86-27.517-15.53-64.985-1.282-92.049 2.391-4.579 6.556-7.956 11.56-9.245l0.126-0.027 66.417-16.585c1.325-0.35 2.845-0.551 4.413-0.551 3.82 0 7.361 1.194 10.27 3.228l-0.058-0.038c6.063 4.351 11.204 9.516 15.394 15.404l0.136 0.201h0.678c3.138-0.819 6.741-1.289 10.453-1.289 20 0 36.815 13.64 41.649 32.124l0.067 0.3 2.035 8.217c0.254 1.015 0.4 2.18 0.4 3.378 0 6.634-4.463 12.226-10.551 13.936l-0.102 0.024zM1600.947 800.478c-3.399-13.207-15.202-22.808-29.247-22.808-1.197 0-2.377 0.070-3.538 0.205l0.141-0.013c5.568 10.55 10.455 22.847 14.012 35.696l0.312 1.32 19.375-4.825c0.598-0.181 1.026-0.727 1.026-1.374 0-0.128-0.017-0.252-0.048-0.37l0.002 0.010z" />
<glyph unicode="&#xe905;" horiz-adv-x="3316" d="M1568.078 733.156l-144.369 36.262c-0.452 0.11-0.972 0.173-1.506 0.173-3.055 0-5.628-2.065-6.399-4.876l-0.011-0.047c-0.131-0.49-0.206-1.052-0.206-1.631 0-3.053 2.086-5.619 4.91-6.35l0.046-0.010 144.293-36.262c0.486-0.129 1.045-0.203 1.621-0.203 3.63 0 6.573 2.943 6.573 6.573 0 3.055-2.083 5.622-4.907 6.36l-0.046 0.010z" />
<glyph unicode="&#xe906;" horiz-adv-x="3316" d="M1137.309 720.642l-52.772 6.936 1.659 12.665 19.601-2.563 6.182 48.927-18.169 2.412 1.659 12.665 34.377-4.523-7.991-61.366 17.113-2.262zM1224.231 784.571l-101.623-113.686-17.339 2.262 101.623 113.459zM1242.702 668.021l-1.659-12.665-60.311 7.991 1.282 9.951 35.583 23.672c8.745 5.88 11.007 9.273 11.534 13.193 0.678 5.353-3.392 10.177-14.098 11.61-1.326 0.276-2.849 0.434-4.409 0.434-5.857 0-11.193-2.226-15.21-5.878l0.018 0.017-10.177 9.499c6.559 6.15 15.407 9.927 25.138 9.927 2.712 0 5.355-0.293 7.9-0.85l-0.243 0.045c19.224-2.488 28.949-13.193 27.291-25.858-0.98-7.162-3.996-12.514-16.736-21.033l-22.617-15.078z" />
<glyph unicode="&#xe907;" horiz-adv-x="3316" d="M855.959 588.411c-1.659 9.122-10.554 13.947-23.144 11.685-10.776-1.328-19.743-7.994-24.269-17.231l-0.081-0.184-17.716 7.539c8.073 15.153 22.917 25.777 40.383 27.869l0.251 0.024c24.049 4.373 42.067-3.694 45.233-22.617 4.825-26.687-22.617-34.151-19.149-53.45l-20.807-3.694c-4.222 24.2 22.24 33.699 19.299 50.058zM838.997 511.59c-0.176 0.808-0.276 1.735-0.276 2.687 0 7.286 5.907 13.193 13.193 13.193s13.193-5.907 13.193-13.193c0-6.523-4.734-11.94-10.954-13.004l-0.078-0.011c-0.758-0.16-1.629-0.252-2.522-0.252-6.273 0-11.487 4.534-12.545 10.503l-0.011 0.077z" />
<glyph unicode="&#xe908;" horiz-adv-x="3316" d="M197.141 105.021c0-53.601-38.9-85.943-102.905-85.943h-67.85v-79.535h-26.386v251.496h94.235c64.080 0 102.905-32.040 102.905-86.018zM170.453 105.021c0 40.257-26.612 63.326-76.972 63.326h-66.869v-125.899h66.869c50.359 0 76.972 22.993 76.972 62.572z" />
<glyph unicode="&#xe909;" horiz-adv-x="3316" d="M254.662 191.039h26.612v-228.427h140.901v-23.069h-167.513z" />
<glyph unicode="&#xe90a;" horiz-adv-x="3316" d="M674.801 82.329v-142.786h-26.461v74.107h-158.316v-74.107h-25.632v142.786c0 73.805 41.765 111.198 105.016 111.198s105.393-37.393 105.393-111.198zM648.34 36.643v48.249c0 57.144-30.155 84.887-79.158 84.887s-79.158-27.743-79.158-84.887v-48.249z" />
<glyph unicode="&#xe90b;" horiz-adv-x="3316" d="M962.257 89.566v-150.023h-26.612v149.269c0 53.978-28.421 80.967-75.388 80.967-48.55 0-79.158-27.743-79.158-87.074v-143.238h-26.612v251.571h25.557v-42.444c16.51 30.608 46.364 44.63 85.189 44.63 59.934 0.302 97.025-36.036 97.025-103.659z" />
<glyph unicode="&#xe90c;" horiz-adv-x="3316" d="M1249.637 89.566v-150.023h-26.612v149.269c0 53.978-28.421 80.967-75.388 80.967-48.55 0-79.158-27.743-79.158-87.074v-143.238h-26.612v251.571h25.557v-42.444c16.585 30.608 46.439 44.63 85.264 44.63 59.934 0.302 96.949-36.036 96.949-103.659z" />
<glyph unicode="&#xe90d;" horiz-adv-x="3316" d="M1381.718 168.422v-205.81h51.038v-23.069h-128.537v23.069h51.038v205.81h-51.038v22.617h128.16v-22.617z" />
<glyph unicode="&#xe90e;" horiz-adv-x="3316" d="M1697.143 89.566v-150.023h-26.612v149.269c0 53.978-28.421 80.967-75.388 80.967-48.55 0-79.158-27.743-79.158-87.074v-143.238h-26.612v251.571h25.934v-42.444c16.585 30.608 46.364 44.63 85.264 44.63 59.557 0.302 96.572-36.036 96.572-103.659z" />
<glyph unicode="&#xe90f;" horiz-adv-x="3316" d="M1954.368 65.442h25.557v-125.899h-23.446v21.26c-19.526-14.635-44.16-23.436-70.849-23.436-1.384 0-2.763 0.024-4.135 0.071l0.199-0.005c-65.814 0-126.954 45.233-126.954 127.331 0 74.408 56.089 128.763 133.060 128.763 38.147 0 71.242-12.288 93.557-36.337l-16.585-16.962c-18.512 18.31-43.979 29.621-72.087 29.621-1.32 0-2.634-0.025-3.942-0.074l0.189 0.006c-62.271 0-107.956-44.253-107.956-105.016 0-66.568 49.681-103.961 102.528-103.961 0.601-0.013 1.31-0.020 2.020-0.020 26.618 0 50.836 10.271 68.908 27.067l-0.063-0.058z" />
<glyph unicode="&#xe910;" horiz-adv-x="3316" d="M2269.189 101.779c0-55.41-41.011-89.561-107.202-89.561h-56.843v-72.674h-46.741v251.496h103.584c66.493 0 107.202-33.472 107.202-89.26zM2222.072 101.779c0 31.663-21.184 49.982-62.195 49.982h-54.732v-99.965h54.732c41.464 0 62.497 18.621 62.497 49.982z" />
<glyph unicode="&#xe911;" horiz-adv-x="3316" d="M2301.908 65.442c0 74.484 57.521 129.517 135.699 129.517s135.699-54.732 135.699-129.517-57.521-129.442-135.699-129.442-135.699 54.958-135.699 129.442zM2525.962 65.442c0 48.88-39.625 88.506-88.506 88.506s-88.506-39.625-88.506-88.506c0-48.88 39.625-88.506 88.506-88.506v0c0.799-0.027 1.738-0.042 2.68-0.042 47.423 0 85.867 38.444 85.867 85.867 0 0.943-0.015 1.882-0.045 2.817l0.003-0.137z" />
<glyph unicode="&#xe912;" horiz-adv-x="3316" d="M2709.457 44.936l-39.956-41.011v-64.382h-46.741v251.496h46.741v-129.14l124.466 129.14h52.772l-105.544-112.555 112.253-139.242h-54.732z" />
<glyph unicode="&#xe913;" horiz-adv-x="3316" d="M2885.037 191.039h46.741v-212.218h121.451v-39.579h-168.191z" />
<glyph unicode="&#xe914;" horiz-adv-x="3316" d="M3265.22-60.457l-51.415 73.73c-3.242 0-6.483 0-9.725 0h-56.843v-73.428h-46.741v251.194h103.508c66.191 0 107.202-33.774 107.202-89.561 0.051-1.075 0.081-2.334 0.081-3.601 0-34.835-22.143-64.498-53.121-75.682l-0.56-0.177 57.898-82.927zM3201.894 151.761h-54.657v-100.342h54.657c41.011 0 62.271 18.696 62.271 50.359s-21.26 49.982-62.271 49.982z" />
<glyph unicode="&#xe915;" horiz-adv-x="3316" d="M2900.039 191.34h142.182v-39.579h-136.076z" />
<glyph unicode="&#xe916;" horiz-adv-x="3316" d="M2900.039 85.269h110.519v-39.579h-110.519v39.579z" />
</font>
</defs>
</svg>
